<?xml version="1.0" encoding="utf-8"?>
<!-- Generator: Adobe Illustrator 23.0.0, SVG Export Plug-In . SVG Version: 6.00 Build 0)  -->
<svg version="1.1" id="Layer_1" xmlns="http://www.w3.org/2000/svg" xmlns:xlink="http://www.w3.org/2000/xlink" x="0px" y="0px"
	 viewBox="0 0 500 150" style="enable-background:new 0 0 500 150;" xml:space="preserve">
<style type="text/css">
	.st0{fill:#FFFFFF;}
</style>
<g id="joéburgón">
	<path class="st0" d="M0,116.2h3.3c2.2,0,3.8-0.5,4.8-1.5c1-1,1.5-2.7,1.5-5.1V51.7h6.1v58.2c0,7.8-3.9,11.6-11.8,11.6H0V116.2z
		 M9.4,40.6c-0.8-0.8-1.3-1.7-1.3-3c0-1.3,0.4-2.3,1.3-3c0.8-0.8,1.9-1.1,3.3-1.1c1.3,0,2.4,0.4,3.2,1.1c0.8,0.8,1.2,1.8,1.2,3
		c0,1.2-0.4,2.2-1.2,3c-0.8,0.8-1.9,1.1-3.2,1.1C11.3,41.7,10.3,41.4,9.4,40.6z"/>
	<path class="st0" d="M62.5,54c3.6,1.9,6.4,4.7,8.4,8.4c2,3.7,3,8,3,13c0,5-1,9.3-3,12.9c-2,3.6-4.8,6.5-8.4,8.4
		c-3.6,2-7.6,3-12.1,3s-8.6-1-12.2-3c-3.6-2-6.4-4.8-8.5-8.5c-2.1-3.7-3.1-8-3.1-12.9c0-5,1-9.3,3.1-13c2.1-3.7,4.9-6.5,8.5-8.4
		c3.6-1.9,7.6-2.9,12.2-2.9S58.9,52.1,62.5,54z M41.7,58.5c-2.7,1.4-4.8,3.5-6.4,6.4c-1.6,2.9-2.4,6.4-2.4,10.6
		c0,4.2,0.8,7.7,2.4,10.5c1.6,2.8,3.8,4.9,6.4,6.3c2.7,1.4,5.6,2.1,8.7,2.1c3.1,0,5.9-0.7,8.6-2.1c2.6-1.4,4.8-3.5,6.4-6.3
		c1.6-2.8,2.4-6.3,2.4-10.5c0-4.2-0.8-7.7-2.4-10.6c-1.6-2.9-3.7-5-6.4-6.4c-2.6-1.4-5.5-2.1-8.6-2.1C47.2,56.4,44.3,57.1,41.7,58.5
		z"/>
	<path class="st0" d="M111.6,55.2c3.1,2.7,5,6.4,5.7,11h-5.8c-0.3-3.1-1.6-5.6-3.8-7.6c-2.2-2-5.1-3-8.7-3c-3.1,0-5.6,0.8-7.3,2.3
		c-1.8,1.5-2.6,3.6-2.6,6.1c0,1.9,0.6,3.4,1.7,4.6c1.1,1.2,2.5,2,4.2,2.6c1.7,0.6,3.9,1.2,6.8,1.9c3.5,0.8,6.3,1.6,8.4,2.5
		c2.1,0.8,3.9,2.2,5.4,4c1.5,1.8,2.3,4.2,2.3,7.3c0,3.8-1.4,6.8-4.2,9.2c-2.8,2.4-6.5,3.6-11.2,3.6c-5.4,0-9.9-1.3-13.4-4
		c-3.5-2.7-5.5-6.4-6.2-11.1h5.9c0.3,3.1,1.7,5.7,4.1,7.6c2.4,2,5.6,3,9.6,3c3,0,5.4-0.8,7-2.3c1.7-1.6,2.5-3.6,2.5-6.1
		c0-2-0.6-3.6-1.7-4.9c-1.2-1.2-2.6-2.1-4.3-2.7c-1.7-0.6-4-1.3-7-2c-3.4-0.8-6.2-1.6-8.2-2.4C88.7,74,87,72.8,85.5,71
		c-1.4-1.7-2.2-4-2.2-7c0-3.9,1.4-7,4.3-9.4c2.8-2.4,6.7-3.6,11.5-3.6C104.3,51.1,108.5,52.5,111.6,55.2z"/>
	<path class="st0" d="M160.3,91.5c2.9-2.1,4.6-5,5.2-8.7h6.4c-0.9,5-3.3,9.1-7.2,12.2s-8.9,4.7-14.9,4.7c-4.5,0-8.5-1-12-2.9
		c-3.5-1.9-6.2-4.7-8.2-8.4c-2-3.7-3-8-3-13c0-5,1-9.3,3-13c2-3.7,4.7-6.5,8.2-8.4c3.5-1.9,7.5-2.9,12-2.9c4.6,0,8.6,1,12,2.9
		c3.4,1.9,6,4.5,7.7,7.8c1.8,3.2,2.6,6.8,2.6,10.6c0,1.6-0.1,3.1-0.3,4.4h-39.3c0.1,4,0.9,7.3,2.5,10c1.6,2.7,3.7,4.7,6.2,5.9
		c2.5,1.3,5.3,1.9,8.3,1.9C153.8,94.7,157.4,93.6,160.3,91.5z M141.4,58c-2.5,1.3-4.6,3.2-6.2,5.9c-1.6,2.6-2.4,5.9-2.6,9.9h33.5
		c0.2-3.9-0.4-7.1-1.9-9.8c-1.5-2.7-3.5-4.6-6.1-5.9c-2.5-1.3-5.3-1.9-8.3-1.9C146.7,56.1,143.9,56.7,141.4,58z M164.3,37.4
		l-17.8,10.5v-4.5l17.8-11.1V37.4z"/>
	<path class="st0" d="M222.6,53.1c3.2,2,5.6,4.9,7.5,8.6c1.8,3.7,2.7,8.1,2.7,13.2c0,5-0.9,9.4-2.7,13.2c-1.8,3.8-4.3,6.6-7.5,8.6
		c-3.2,2-6.7,3-10.7,3c-3.7,0-6.9-0.8-9.5-2.5c-2.7-1.7-4.6-4-5.8-6.9v8.8h-14.9V34.9h14.9v24.6c1.2-2.9,3.2-5.2,5.8-6.9
		c2.7-1.7,5.8-2.5,9.5-2.5C215.9,50.1,219.4,51.1,222.6,53.1z M199.4,66.3c-2,2.1-3,5-3,8.6c0,3.6,1,6.5,3,8.6
		c2,2.1,4.6,3.2,7.7,3.2c3.2,0,5.7-1,7.7-3.1c1.9-2.1,2.9-5,2.9-8.7c0-3.7-1-6.6-2.9-8.7c-1.9-2.1-4.5-3.1-7.7-3.1
		C204,63.1,201.4,64.2,199.4,66.3z"/>
	<path class="st0" d="M288.7,50.7v48.5h-14.9v-8.8c-1.4,2.8-3.5,5.1-6.2,6.8c-2.7,1.7-5.9,2.5-9.6,2.5c-5.6,0-10-1.9-13.2-5.6
		c-3.3-3.7-4.9-8.8-4.9-15.3V50.7h14.8V77c0,3.3,0.9,5.9,2.6,7.7c1.7,1.8,4,2.7,6.9,2.7c3,0,5.4-1,7.1-2.9c1.7-1.9,2.6-4.6,2.6-8.2
		V50.7H288.7z"/>
	<path class="st0" d="M321,52.8c2.9-1.7,6.1-2.6,9.5-2.6v15.9h-4.3c-3.9,0-7,0.8-9.2,2.5c-2.2,1.7-3.3,4.5-3.3,8.5v22.1H299V50.7
		h14.8v9.1C315.7,56.9,318.1,54.5,321,52.8z"/>
	<path class="st0" d="M364.7,52.6c2.7,1.7,4.6,4,5.9,6.9v-8.8h14.8v48.2c0,4.5-0.9,8.6-2.6,12.2c-1.7,3.6-4.4,6.5-8,8.6
		c-3.6,2.1-8,3.2-13.4,3.2c-7.3,0-13.1-1.7-17.5-5.2c-4.4-3.4-7-8.1-7.9-14h14.7c0.5,2,1.5,3.5,3.2,4.6c1.7,1.1,3.8,1.7,6.5,1.7
		c3.1,0,5.5-0.9,7.4-2.6c1.9-1.8,2.8-4.6,2.8-8.5v-8.5c-1.3,2.9-3.2,5.2-5.9,6.9c-2.7,1.7-5.8,2.5-9.6,2.5c-4,0-7.6-1-10.7-3
		c-3.2-2-5.6-4.9-7.5-8.6c-1.8-3.8-2.7-8.2-2.7-13.2c0-5.1,0.9-9.5,2.7-13.2c1.8-3.7,4.3-6.6,7.5-8.6c3.2-2,6.7-3,10.7-3
		C358.9,50.1,362,50.9,364.7,52.6z M352.2,66.2c-1.9,2.1-2.9,5-2.9,8.7c0,3.7,1,6.6,2.9,8.7c1.9,2.1,4.5,3.1,7.7,3.1
		c3.1,0,5.7-1.1,7.7-3.2c2-2.1,3-5,3-8.6c0-3.6-1-6.5-3-8.6c-2-2.1-4.6-3.2-7.7-3.2C356.7,63.1,354.2,64.1,352.2,66.2z"/>
	<path class="st0" d="M431.2,53.1c3.8,2,6.8,4.9,8.9,8.6c2.2,3.8,3.3,8.2,3.3,13.2c0,5-1.1,9.4-3.3,13.2c-2.2,3.8-5.2,6.6-8.9,8.6
		c-3.8,2-8.1,3-12.9,3c-4.8,0-9.1-1-12.9-3c-3.8-2-6.8-4.9-9-8.6c-2.2-3.8-3.3-8.2-3.3-13.2c0-5,1.1-9.4,3.3-13.2
		c2.2-3.8,5.2-6.6,9-8.6c3.8-2,8.1-3,12.9-3C423.1,50.1,427.4,51.1,431.2,53.1z M411.1,66c-1.9,2.1-2.9,5-2.9,8.9
		c0,3.9,1,6.8,2.9,8.9c1.9,2,4.3,3,7.2,3s5.2-1,7.1-3c1.9-2,2.9-5,2.9-8.9c0-3.9-1-6.8-2.9-8.9c-1.9-2.1-4.3-3.1-7.1-3.1
		S413.1,64,411.1,66z M430.7,38.3l-20.9,8.9V37.1l20.9-10.1V38.3z"/>
	<path class="st0" d="M495.1,55.7c3.3,3.7,4.9,8.8,4.9,15.3v28.1h-14.8V72.7c0-3.2-0.9-5.8-2.6-7.6c-1.7-1.8-4-2.7-6.8-2.7
		c-3,0-5.4,1-7.2,2.9c-1.8,1.9-2.6,4.6-2.6,8.2v25.7h-14.8V50.7H466v8.9c1.4-2.9,3.5-5.2,6.2-6.9c2.7-1.7,6-2.5,9.7-2.5
		C487.4,50.2,491.8,52,495.1,55.7z"/>
</g>
</svg>
